<svg width="168" height="40" viewBox="0 0 168 40" fill="none" xmlns="http://www.w3.org/2000/svg">
<g clip-path="url(#clip0_1_33)">
<path d="M22.4193 14.1569C22.3353 14.1832 22.2594 14.1894 22.1961 14.1752C22.1327 14.1611 22.0831 14.1268 22.05 14.0743C22.0169 14.0219 22.0011 13.9523 22.0033 13.8695C22.0056 13.7868 22.0259 13.6925 22.0632 13.592L25.9291 3.14493C26.0042 2.94203 26.1437 2.72632 26.3168 2.54525C26.49 2.36418 26.6826 2.23258 26.8524 2.1794C27.0221 2.12622 27.1551 2.15582 27.222 2.26169C27.289 2.36756 27.2844 2.54102 27.2093 2.74391L23.3418 13.1918C23.2668 13.3945 23.1275 13.6101 22.9545 13.7911C22.7815 13.9721 22.589 14.1037 22.4193 14.1569ZM35.3352 8.30697C35.3266 8.47675 35.2447 8.6884 35.1076 8.89537C34.9705 9.10233 34.7894 9.28765 34.6041 9.41058L21.5293 18.0895L18.9575 25.0373C19.7796 24.9447 20.3662 25.2718 20.6022 25.9545C20.8381 26.6372 20.7063 27.6261 20.2327 28.727C19.7591 29.8278 18.9779 30.9611 18.0425 31.9042C17.1072 32.8474 16.0852 33.5321 15.1775 33.824C14.2697 34.1159 13.5417 33.9939 13.1365 33.4819C12.7313 32.9699 12.6781 32.1049 12.9874 31.0568C13.2967 30.0088 13.9462 28.8534 14.8082 27.8176C15.6703 26.7819 16.6826 25.9406 17.6463 25.459C17.6565 25.4549 17.6669 25.45 17.6774 25.4443L20.0295 19.0852L14.2232 22.9377L14.2102 22.9733C13.9813 23.9847 13.401 25.1372 12.5832 26.2046C11.7654 27.272 10.7692 28.1771 9.79018 28.7422C8.81118 29.3073 7.92012 29.4916 7.29197 29.2589C6.66382 29.0262 6.34396 28.3933 6.39519 27.4845C6.44642 26.5757 6.86505 25.4566 7.56887 24.347C8.27269 23.2374 9.21085 22.2174 10.1991 21.4874C11.1874 20.7574 12.1545 20.37 12.9103 20.4013C13.6662 20.4327 14.1563 20.8805 14.2844 21.6568L34.6598 8.13548C34.7524 8.07298 34.8435 8.0278 34.9278 8.00257C35.012 7.97734 35.0878 7.97256 35.1506 7.98852C35.2135 8.00448 35.2622 8.04084 35.2938 8.09551C35.3255 8.15018 35.3396 8.22206 35.3352 8.30697ZM12.855 23.645C12.9711 23.127 12.9382 22.6932 12.7604 22.3986C12.5827 22.1041 12.268 21.9618 11.8563 21.99C11.4446 22.0181 10.9542 22.2154 10.4473 22.5568C9.94037 22.8982 9.43959 23.3684 9.00828 23.908C8.57697 24.4476 8.2345 25.0324 8.02417 25.5883C7.81384 26.1443 7.74508 26.6465 7.82661 27.0315C7.90813 27.4164 8.13627 27.6669 8.48218 27.7511C8.82809 27.8353 9.27623 27.7496 9.76996 27.5047C10.098 27.3437 10.4385 27.1157 10.7717 26.8339C11.1049 26.5522 11.4242 26.2222 11.7112 25.8633C11.9981 25.5043 12.247 25.1234 12.4433 24.7426C12.6397 24.3618 12.7796 23.9888 12.855 23.645ZM18.9207 26.7723C18.6082 26.5466 18.1305 26.5468 17.5689 26.7728C17.0074 26.9988 16.3967 27.4367 15.8409 28.0119C15.2852 28.5871 14.8188 29.2639 14.5212 29.9271C14.2236 30.5903 14.1132 31.1988 14.2088 31.6489C14.3044 32.0991 14.6001 32.363 15.0455 32.3958C15.4909 32.4285 16.0585 32.2281 16.6516 31.8286C17.2446 31.4291 17.8264 30.8553 18.2979 30.2049C18.7693 29.5545 19.1012 28.8677 19.237 28.2617C19.3149 27.9172 19.327 27.6081 19.2727 27.3525C19.2184 27.0969 19.0988 26.8997 18.9207 26.7723Z" fill="white"/>
</g>
<path d="M35.7185 23.4588L35.8865 22.9788H44.3585L44.1665 23.4588H35.7185ZM45.5105 17.3148C45.6705 16.7228 45.7345 16.2908 45.7025 16.0188C45.6865 15.7308 45.5505 15.5388 45.2945 15.4428C45.0385 15.3308 44.6385 15.2668 44.0945 15.2508L44.2145 14.7708C44.5825 14.7868 45.0385 14.8028 45.5825 14.8188C46.1425 14.8348 46.6945 14.8428 47.2385 14.8428C47.8625 14.8428 48.4465 14.8348 48.9905 14.8188C49.5345 14.8028 49.9825 14.7868 50.3345 14.7708L50.2145 15.2508C49.6705 15.2668 49.2465 15.3308 48.9425 15.4428C48.6385 15.5388 48.3985 15.7308 48.2225 16.0188C48.0625 16.2908 47.9025 16.7228 47.7425 17.3148L44.5745 29.2188C44.4305 29.7948 44.3665 30.2268 44.3825 30.5148C44.3985 30.8028 44.5345 30.9948 44.7905 31.0908C45.0465 31.1868 45.4465 31.2508 45.9905 31.2828L45.8945 31.7628C45.5585 31.7308 45.1185 31.7148 44.5745 31.7148C44.0305 31.6988 43.4465 31.6908 42.8225 31.6908C42.2785 31.6908 41.7265 31.6988 41.1665 31.7148C40.6065 31.7148 40.1425 31.7308 39.7745 31.7628L39.8705 31.2828C40.4145 31.2508 40.8385 31.1868 41.1425 31.0908C41.4465 30.9948 41.6865 30.8028 41.8625 30.5148C42.0385 30.2268 42.1985 29.7948 42.3425 29.2188L45.5105 17.3148ZM34.6385 29.2188C34.4945 29.7948 34.4305 30.2268 34.4465 30.5148C34.4625 30.8028 34.5985 30.9948 34.8545 31.0908C35.1105 31.1868 35.5105 31.2508 36.0545 31.2828L35.9585 31.7628C35.5905 31.7308 35.1265 31.7148 34.5665 31.7148C34.0225 31.6988 33.4705 31.6908 32.9105 31.6908C32.2865 31.6908 31.7105 31.6988 31.1825 31.7148C30.6545 31.7148 30.2145 31.7308 29.8625 31.7628L29.9825 31.2828C30.5105 31.2508 30.9185 31.1868 31.2065 31.0908C31.5105 30.9948 31.7505 30.8028 31.9265 30.5148C32.1025 30.2268 32.2625 29.7948 32.4065 29.2188L35.5745 17.3148C35.7345 16.7228 35.7985 16.2908 35.7665 16.0188C35.7345 15.7308 35.5905 15.5388 35.3345 15.4428C35.0945 15.3308 34.7025 15.2668 34.1585 15.2508L34.2785 14.7708C34.5985 14.7868 35.0305 14.8028 35.5745 14.8188C36.1185 14.8348 36.7025 14.8428 37.3265 14.8428C37.8865 14.8428 38.4385 14.8348 38.9825 14.8188C39.5425 14.8028 40.0145 14.7868 40.3985 14.7708L40.2785 15.2508C39.7345 15.2668 39.3105 15.3308 39.0065 15.4428C38.7025 15.5388 38.4625 15.7308 38.2865 16.0188C38.1265 16.2908 37.9665 16.7228 37.8065 17.3148L34.6385 29.2188ZM52.5069 31.3308C52.8909 31.3308 53.3309 31.0908 53.8269 30.6108C54.3229 30.1148 54.8269 29.4508 55.3389 28.6188C55.8509 27.7868 56.3229 26.8428 56.7549 25.7868C57.1869 24.7308 57.5309 23.6348 57.7869 22.4988L57.3789 25.0908C56.7709 26.7868 56.1629 28.1548 55.5549 29.1948C54.9469 30.2188 54.3309 30.9628 53.7069 31.4268C53.0829 31.8748 52.4509 32.0988 51.8109 32.0988C51.0589 32.0988 50.4909 31.8268 50.1069 31.2828C49.7389 30.7388 49.5549 30.0428 49.5549 29.1948C49.5549 28.4268 49.6829 27.5948 49.9389 26.6988C50.1949 25.7868 50.5469 24.8828 50.9949 23.9868C51.4589 23.0908 51.9869 22.2748 52.5789 21.5388C53.1709 20.8028 53.8109 20.2108 54.4989 19.7628C55.2029 19.3148 55.9149 19.0908 56.6349 19.0908C57.1949 19.0908 57.6189 19.3708 57.9069 19.9308C58.2109 20.4748 58.2749 21.2428 58.0989 22.2348L57.8349 22.3788C57.9469 21.5308 57.8909 20.8508 57.6669 20.3388C57.4429 19.8108 57.0749 19.5468 56.5629 19.5468C56.1469 19.5468 55.7069 19.7548 55.2429 20.1708C54.7949 20.5708 54.3549 21.1228 53.9229 21.8268C53.5069 22.5148 53.1229 23.2908 52.7709 24.1548C52.4349 25.0188 52.1629 25.9148 51.9549 26.8428C51.7629 27.7548 51.6669 28.6348 51.6669 29.4828C51.6669 30.1708 51.7389 30.6508 51.8829 30.9228C52.0429 31.1948 52.2509 31.3308 52.5069 31.3308ZM58.5549 19.4268C58.9389 19.4108 59.3229 19.3788 59.7069 19.3308C60.0909 19.2828 60.4429 19.2028 60.7629 19.0908L57.7629 29.6988C57.7309 29.8428 57.6829 30.0348 57.6189 30.2748C57.5709 30.4988 57.5709 30.7068 57.6189 30.8988C57.6829 31.0908 57.8509 31.1868 58.1229 31.1868C58.4429 31.1868 58.7549 31.0108 59.0589 30.6588C59.3629 30.3068 59.6669 29.6668 59.9709 28.7388L60.2589 27.8508H60.7149L60.1149 29.6028C59.8909 30.2428 59.6189 30.7468 59.2989 31.1148C58.9949 31.4668 58.6749 31.7148 58.3389 31.8588C58.0029 32.0188 57.6749 32.0988 57.3549 32.0988C56.7309 32.0988 56.2909 31.8908 56.0349 31.4748C55.8269 31.1068 55.7709 30.6828 55.8669 30.2028C55.9629 29.7068 56.0749 29.2108 56.2029 28.7148L58.5549 19.4268ZM67.6374 15.0588C67.7174 14.6428 67.9254 14.2828 68.2614 13.9788C68.6134 13.6748 68.9894 13.5228 69.3894 13.5228C69.8054 13.5228 70.1254 13.6748 70.3494 13.9788C70.5894 14.2828 70.6694 14.6428 70.5894 15.0588C70.5094 15.4748 70.2934 15.8348 69.9414 16.1388C69.6054 16.4428 69.2294 16.5948 68.8134 16.5948C68.4134 16.5948 68.0934 16.4428 67.8534 16.1388C67.6294 15.8348 67.5574 15.4748 67.6374 15.0588ZM66.8934 21.4668C67.2294 20.4748 67.1174 19.9788 66.5574 19.9788C66.1894 19.9788 65.8614 20.1788 65.5734 20.5788C65.2854 20.9788 64.9814 21.5948 64.6614 22.4268L64.3254 23.3148H63.8694L64.4934 21.5628C64.7334 20.8908 65.0214 20.3788 65.3574 20.0268C65.6934 19.6748 66.0454 19.4348 66.4134 19.3068C66.7974 19.1628 67.1494 19.0908 67.4694 19.0908C67.9814 19.0908 68.3574 19.1948 68.5974 19.4028C68.8374 19.6108 68.9814 19.8828 69.0294 20.2188C69.0774 20.5548 69.0614 20.9228 68.9814 21.3228C68.9014 21.7068 68.7974 22.0828 68.6694 22.4508L66.1014 29.7228C65.9414 30.1868 65.8854 30.5548 65.9334 30.8268C65.9974 31.0828 66.1814 31.2108 66.4854 31.2108C66.8054 31.2108 67.1094 31.0348 67.3974 30.6828C67.6854 30.3308 68.0054 29.6908 68.3574 28.7628L68.6934 27.8748H69.1494L68.5254 29.6268C68.3014 30.2508 68.0294 30.7468 67.7094 31.1148C67.3894 31.4668 67.0454 31.7148 66.6774 31.8588C66.3094 32.0188 65.9414 32.0988 65.5734 32.0988C64.8854 32.0988 64.4214 31.9388 64.1814 31.6188C63.9414 31.2988 63.8534 30.8828 63.9174 30.3708C63.9814 29.8588 64.1174 29.3148 64.3254 28.7388L66.8934 21.4668ZM74.4475 31.7628H72.3595L75.2395 21.4668C75.3995 20.9228 75.4475 20.5388 75.3835 20.3148C75.3355 20.0908 75.1755 19.9788 74.9035 19.9788C74.5515 19.9788 74.2315 20.1628 73.9435 20.5308C73.6555 20.8988 73.3515 21.5308 73.0315 22.4268L72.7195 23.3148H72.2635L72.8635 21.5628C73.1035 20.8908 73.3835 20.3788 73.7035 20.0268C74.0395 19.6748 74.3835 19.4348 74.7355 19.3068C75.1035 19.1628 75.4475 19.0908 75.7675 19.0908C76.2475 19.0908 76.5835 19.1948 76.7755 19.4028C76.9835 19.6108 77.0955 19.8828 77.1115 20.2188C77.1435 20.5548 77.1195 20.9228 77.0395 21.3228C76.9755 21.7068 76.8955 22.0828 76.7995 22.4508L74.4475 31.7628ZM80.6155 19.6908C80.2475 19.6908 79.8635 19.8668 79.4635 20.2188C79.0795 20.5548 78.6795 21.0508 78.2635 21.7068C77.8635 22.3468 77.4555 23.1228 77.0395 24.0348C76.6395 24.9308 76.2395 25.9308 75.8395 27.0348C75.4555 28.1388 75.0795 29.3308 74.7115 30.6108L75.3115 27.5388C75.8395 25.9708 76.3275 24.6508 76.7755 23.5788C77.2395 22.5068 77.6955 21.6428 78.1435 20.9868C78.5915 20.3148 79.0475 19.8348 79.5115 19.5468C79.9915 19.2428 80.4955 19.0908 81.0235 19.0908C81.4715 19.0908 81.8155 19.2188 82.0555 19.4748C82.3115 19.7308 82.4395 20.0588 82.4395 20.4588C82.4395 20.7788 82.3595 21.0748 82.1995 21.3468C82.0395 21.6028 81.8315 21.8108 81.5755 21.9708C81.3355 22.1148 81.0635 22.1868 80.7595 22.1868C80.4875 22.1868 80.2555 22.1148 80.0635 21.9708C79.8875 21.8108 79.7995 21.5948 79.7995 21.3228C79.7995 21.0668 79.8475 20.8428 79.9435 20.6508C80.0395 20.4428 80.1675 20.2668 80.3275 20.1228C80.4875 19.9788 80.6715 19.8668 80.8795 19.7868C80.8475 19.7548 80.8075 19.7308 80.7595 19.7148C80.7275 19.6988 80.6795 19.6908 80.6155 19.6908ZM108.473 14.8428H109.625C110.185 14.8428 110.729 14.8348 111.257 14.8188C111.785 14.8028 112.241 14.7868 112.625 14.7708L112.505 15.2508C111.961 15.2668 111.537 15.3308 111.233 15.4428C110.929 15.5388 110.689 15.7308 110.513 16.0188C110.353 16.2908 110.193 16.7228 110.033 17.3148L106.865 29.2188C106.721 29.7948 106.657 30.2268 106.673 30.5148C106.705 30.8028 106.849 30.9948 107.105 31.0908C107.361 31.1868 107.753 31.2508 108.281 31.2828L108.185 31.7628C107.817 31.7308 107.369 31.7148 106.841 31.7148C106.313 31.6988 105.769 31.6908 105.209 31.6908C104.585 31.6908 103.993 31.6988 103.433 31.7148C102.873 31.7148 102.425 31.7308 102.089 31.7628L102.185 31.2828C102.745 31.2508 103.169 31.1868 103.457 31.0908C103.761 30.9948 104.001 30.8028 104.177 30.5148C104.353 30.2268 104.513 29.7948 104.657 29.2188L108.137 16.2828L98.1766 31.8828H97.6486L96.0166 16.0908L92.6086 28.9788C92.4646 29.5548 92.4006 30.0108 92.4166 30.3468C92.4326 30.6668 92.5846 30.8988 92.8726 31.0428C93.1606 31.1708 93.6086 31.2508 94.2166 31.2828L94.0966 31.7628C93.9206 31.7468 93.6886 31.7388 93.4006 31.7388C93.1286 31.7228 92.8406 31.7148 92.5366 31.7148C92.2326 31.6988 91.9446 31.6908 91.6726 31.6908C91.2726 31.6908 90.8646 31.6988 90.4486 31.7148C90.0326 31.7148 89.6886 31.7308 89.4166 31.7628L89.5366 31.2828C90.0966 31.2508 90.5286 31.1708 90.8326 31.0428C91.1366 30.8988 91.3766 30.6668 91.5526 30.3468C91.7446 30.0108 91.9126 29.5548 92.0566 28.9788L95.1766 17.3148C95.3366 16.7228 95.4006 16.2908 95.3686 16.0188C95.3366 15.7308 95.1926 15.5388 94.9366 15.4428C94.6966 15.3308 94.3046 15.2668 93.7606 15.2508L93.8806 14.7708C94.1366 14.7868 94.4486 14.8028 94.8166 14.8188C95.2006 14.8348 95.6006 14.8428 96.0166 14.8428C96.3846 14.8428 96.7606 14.8348 97.1446 14.8188C97.5286 14.8028 97.8566 14.7868 98.1286 14.7708L99.4486 29.0028L108.473 14.8428ZM114.804 31.3308C115.188 31.3308 115.628 31.0908 116.124 30.6108C116.62 30.1148 117.124 29.4508 117.636 28.6188C118.148 27.7868 118.62 26.8428 119.052 25.7868C119.484 24.7308 119.828 23.6348 120.084 22.4988L119.676 25.0908C119.068 26.7868 118.46 28.1548 117.852 29.1948C117.244 30.2188 116.628 30.9628 116.004 31.4268C115.38 31.8748 114.748 32.0988 114.108 32.0988C113.356 32.0988 112.788 31.8268 112.404 31.2828C112.036 30.7388 111.852 30.0428 111.852 29.1948C111.852 28.4268 111.98 27.5948 112.236 26.6988C112.492 25.7868 112.844 24.8828 113.292 23.9868C113.756 23.0908 114.284 22.2748 114.876 21.5388C115.468 20.8028 116.108 20.2108 116.796 19.7628C117.5 19.3148 118.212 19.0908 118.932 19.0908C119.492 19.0908 119.916 19.3708 120.204 19.9308C120.508 20.4748 120.572 21.2428 120.396 22.2348L120.132 22.3788C120.244 21.5308 120.188 20.8508 119.964 20.3388C119.74 19.8108 119.372 19.5468 118.86 19.5468C118.444 19.5468 118.004 19.7548 117.54 20.1708C117.092 20.5708 116.652 21.1228 116.22 21.8268C115.804 22.5148 115.42 23.2908 115.068 24.1548C114.732 25.0188 114.46 25.9148 114.252 26.8428C114.06 27.7548 113.964 28.6348 113.964 29.4828C113.964 30.1708 114.036 30.6508 114.18 30.9228C114.34 31.1948 114.548 31.3308 114.804 31.3308ZM120.852 19.4268C121.236 19.4108 121.62 19.3788 122.004 19.3308C122.388 19.2828 122.74 19.2028 123.06 19.0908L120.06 29.6988C120.028 29.8428 119.98 30.0348 119.916 30.2748C119.868 30.4988 119.868 30.7068 119.916 30.8988C119.98 31.0908 120.148 31.1868 120.42 31.1868C120.74 31.1868 121.052 31.0108 121.356 30.6588C121.66 30.3068 121.964 29.6668 122.268 28.7388L122.556 27.8508H123.012L122.412 29.6028C122.188 30.2428 121.916 30.7468 121.596 31.1148C121.292 31.4668 120.972 31.7148 120.636 31.8588C120.3 32.0188 119.972 32.0988 119.652 32.0988C119.028 32.0988 118.588 31.8908 118.332 31.4748C118.124 31.1068 118.068 30.6828 118.164 30.2028C118.26 29.7068 118.372 29.2108 118.5 28.7148L120.852 19.4268ZM126.814 31.4028C126.942 31.4668 127.078 31.5228 127.222 31.5708C127.382 31.6028 127.614 31.6188 127.918 31.6188C128.622 31.6188 129.198 31.4108 129.646 30.9948C130.11 30.5628 130.342 29.9468 130.342 29.1468C130.342 28.6508 130.246 28.1628 130.054 27.6828C129.878 27.1868 129.558 26.6188 129.094 25.9788C128.726 25.4668 128.374 24.9468 128.038 24.4188C127.702 23.8748 127.534 23.2348 127.534 22.4988C127.534 21.8108 127.702 21.2188 128.038 20.7228C128.374 20.2108 128.822 19.8108 129.382 19.5228C129.958 19.2348 130.582 19.0908 131.254 19.0908C131.718 19.0908 132.174 19.1468 132.622 19.2588C133.07 19.3708 133.438 19.5788 133.726 19.8828C134.03 20.1708 134.182 20.6028 134.182 21.1788C134.182 21.3228 134.142 21.4988 134.062 21.7068C133.998 21.8988 133.886 22.0668 133.726 22.2108C133.566 22.3548 133.35 22.4268 133.078 22.4268C132.822 22.4268 132.598 22.3388 132.406 22.1628C132.214 21.9708 132.118 21.7228 132.118 21.4188C132.118 21.1308 132.174 20.8588 132.286 20.6028C132.414 20.3308 132.582 20.0668 132.79 19.8108C132.486 19.6188 132.086 19.5228 131.59 19.5228C130.998 19.5228 130.502 19.7228 130.102 20.1228C129.702 20.5228 129.502 21.0828 129.502 21.8028C129.502 22.1708 129.558 22.4988 129.67 22.7868C129.782 23.0588 129.942 23.3468 130.15 23.6508C130.374 23.9548 130.638 24.3388 130.942 24.8028C131.342 25.4108 131.678 25.9948 131.95 26.5548C132.222 27.1148 132.358 27.7068 132.358 28.3308C132.358 29.0668 132.166 29.7228 131.782 30.2988C131.414 30.8588 130.918 31.2988 130.294 31.6188C129.67 31.9388 128.982 32.0988 128.23 32.0988C127.686 32.0988 127.166 32.0188 126.67 31.8588C126.174 31.6988 125.766 31.4508 125.446 31.1148C125.142 30.7628 124.99 30.2988 124.99 29.7228C124.99 29.4988 125.062 29.2668 125.206 29.0268C125.334 28.7708 125.574 28.6428 125.926 28.6428C126.31 28.6428 126.582 28.8028 126.742 29.1228C126.902 29.4268 126.982 29.7708 126.982 30.1548C126.982 30.4108 126.958 30.6428 126.91 30.8508C126.878 31.0428 126.846 31.2268 126.814 31.4028ZM144.739 19.4268L144.667 19.9068H137.203L137.323 19.4268H144.739ZM138.643 29.7228C138.499 30.2508 138.531 30.6348 138.739 30.8748C138.963 31.0988 139.251 31.2108 139.603 31.2108C139.955 31.2108 140.307 31.0588 140.659 30.7548C141.027 30.4508 141.387 29.8028 141.739 28.8108L142.075 27.8748H142.531L142.027 29.3868C141.675 30.4268 141.219 31.1388 140.659 31.5228C140.115 31.9068 139.475 32.0988 138.739 32.0988C138.083 32.0988 137.579 31.9628 137.227 31.6908C136.891 31.4028 136.691 31.0028 136.627 30.4908C136.563 29.9788 136.627 29.3948 136.819 28.7388L140.539 15.7788C140.923 15.7628 141.299 15.7308 141.667 15.6828C142.051 15.6348 142.395 15.5548 142.699 15.4428L138.643 29.7228ZM147.017 26.3148C147.913 26.0108 148.721 25.7148 149.441 25.4268C150.177 25.1228 150.761 24.8028 151.193 24.4668C151.769 24.0028 152.225 23.4428 152.561 22.7868C152.897 22.1308 153.065 21.4108 153.065 20.6268C153.065 20.1628 153.033 19.8668 152.969 19.7388C152.905 19.6108 152.809 19.5468 152.681 19.5468C152.281 19.5468 151.849 19.7228 151.385 20.0748C150.921 20.4268 150.465 20.9148 150.017 21.5388C149.569 22.1468 149.153 22.8428 148.769 23.6268C148.401 24.4108 148.105 25.2508 147.881 26.1468C147.657 27.0268 147.545 27.9068 147.545 28.7868C147.545 29.6028 147.697 30.1948 148.001 30.5628C148.305 30.9148 148.705 31.0908 149.201 31.0908C149.777 31.0908 150.385 30.9148 151.025 30.5628C151.665 30.2108 152.289 29.5868 152.897 28.6908L153.281 28.8828C152.977 29.4108 152.577 29.9228 152.081 30.4188C151.585 30.9148 151.025 31.3228 150.401 31.6428C149.793 31.9468 149.145 32.0988 148.457 32.0988C147.817 32.0988 147.257 31.9708 146.777 31.7148C146.297 31.4588 145.929 31.0828 145.673 30.5868C145.417 30.0748 145.289 29.4508 145.289 28.7148C145.289 28.0268 145.417 27.2588 145.673 26.4108C145.929 25.5468 146.289 24.6908 146.753 23.8428C147.233 22.9788 147.801 22.1868 148.457 21.4668C149.113 20.7468 149.841 20.1708 150.641 19.7388C151.441 19.3068 152.297 19.0908 153.209 19.0908C153.705 19.0908 154.121 19.2268 154.457 19.4988C154.809 19.7548 154.985 20.1468 154.985 20.6748C154.985 21.3148 154.793 21.9148 154.409 22.4748C154.041 23.0188 153.545 23.5228 152.921 23.9868C152.313 24.4348 151.649 24.8348 150.929 25.1868C150.209 25.5388 149.505 25.8428 148.817 26.0988C148.129 26.3548 147.521 26.5628 146.993 26.7228L147.017 26.3148ZM159.394 31.7628H157.306L160.186 21.4668C160.346 20.9228 160.394 20.5388 160.33 20.3148C160.282 20.0908 160.122 19.9788 159.85 19.9788C159.498 19.9788 159.178 20.1628 158.89 20.5308C158.602 20.8988 158.298 21.5308 157.978 22.4268L157.666 23.3148H157.21L157.81 21.5628C158.05 20.8908 158.33 20.3788 158.65 20.0268C158.986 19.6748 159.33 19.4348 159.682 19.3068C160.05 19.1628 160.394 19.0908 160.714 19.0908C161.194 19.0908 161.53 19.1948 161.722 19.4028C161.93 19.6108 162.042 19.8828 162.058 20.2188C162.09 20.5548 162.066 20.9228 161.986 21.3228C161.922 21.7068 161.842 22.0828 161.746 22.4508L159.394 31.7628ZM165.562 19.6908C165.194 19.6908 164.81 19.8668 164.41 20.2188C164.026 20.5548 163.626 21.0508 163.21 21.7068C162.81 22.3468 162.402 23.1228 161.986 24.0348C161.586 24.9308 161.186 25.9308 160.786 27.0348C160.402 28.1388 160.026 29.3308 159.658 30.6108L160.258 27.5388C160.786 25.9708 161.274 24.6508 161.722 23.5788C162.186 22.5068 162.642 21.6428 163.09 20.9868C163.538 20.3148 163.994 19.8348 164.458 19.5468C164.938 19.2428 165.442 19.0908 165.97 19.0908C166.418 19.0908 166.762 19.2188 167.002 19.4748C167.258 19.7308 167.386 20.0588 167.386 20.4588C167.386 20.7788 167.306 21.0748 167.146 21.3468C166.986 21.6028 166.778 21.8108 166.522 21.9708C166.282 22.1148 166.01 22.1868 165.706 22.1868C165.434 22.1868 165.202 22.1148 165.01 21.9708C164.834 21.8108 164.746 21.5948 164.746 21.3228C164.746 21.0668 164.794 20.8428 164.89 20.6508C164.986 20.4428 165.114 20.2668 165.274 20.1228C165.434 19.9788 165.618 19.8668 165.826 19.7868C165.794 19.7548 165.754 19.7308 165.706 19.7148C165.674 19.6988 165.626 19.6908 165.562 19.6908Z" fill="white"/>
<defs>
<clipPath id="clip0_1_33">
<rect width="36.6599" height="19.3884" fill="white" transform="matrix(0.624366 -0.781132 0.81023 0.586113 0 28.6362)"/>
</clipPath>
</defs>
</svg>
